<svg width="25" height="25" viewBox="0 0 25 25" fill="none" xmlns="http://www.w3.org/2000/svg">
<g clip-path="url(#clip0_128_86)">
<path d="M19.7418 4.90536C20.9671 7.57115 20.6891 10.7092 19.3323 13.2595C18.2192 15.3518 16.5581 17.0823 15.1893 18.9979C14.5634 19.8749 13.9316 20.7867 13.5019 21.7853C13.3593 22.1175 13.236 22.4579 13.1147 22.7993C12.9924 23.1397 12.8882 23.4872 12.7709 23.8296C12.6607 24.1506 12.5323 24.5288 12.137 24.5318H12.13C11.6588 24.5308 11.5446 23.9901 11.4273 23.6252C11.1402 22.7318 10.8399 21.8742 10.3971 21.0442C9.8815 20.0793 9.23952 19.187 8.58742 18.3141L19.7418 4.90536ZM8.63898 7.87576L4.63643 12.6871C5.3684 14.2612 6.47747 15.6135 7.53902 16.9597C7.78873 17.2766 8.03845 17.5955 8.28412 17.9164L13.3229 11.8601L13.2936 11.8704C11.5335 12.4847 9.56203 11.5729 8.85332 9.83933C8.75637 9.60401 8.6855 9.35855 8.64202 9.10746C8.57832 8.66077 8.56417 8.32959 8.63797 7.88291L8.63898 7.87576V7.87576ZM5.5524 3.2188L5.54937 3.22289C3.58095 5.74353 3.24328 9.23318 4.42008 12.1872L9.25771 6.37216L9.19908 6.32105L5.5524 3.2188ZM14.8223 0.445678L10.942 5.10979C10.951 5.10594 10.9601 5.10253 10.9693 5.09957C12.5869 4.53636 14.4098 5.25289 15.2358 6.7616C15.4137 7.08767 15.5623 7.45974 15.6169 7.82976C15.6857 8.28564 15.7028 8.61989 15.629 9.07679L15.626 9.09315L19.5042 4.43108C18.4907 2.56221 16.8247 1.14235 14.8314 0.448745L14.8223 0.445678ZM9.57011 5.99805L14.3178 0.291332L14.2703 0.279066C13.5677 0.0923642 12.8442 -0.00143461 12.1178 1.65834e-05C10.9416 0.0111548 9.78043 0.268065 8.70713 0.754612C7.63383 1.24116 6.67164 1.94683 5.88098 2.82731L5.8648 2.84571L9.57011 5.99805V5.99805Z" fill="#FF0000" stroke="#FF0000"/>
</g>
<defs>
<clipPath id="clip0_128_86">
<rect width="24.264" height="24.5318" fill="white"/>
</clipPath>
</defs>
</svg>
