<svg width="1440" height="170" viewBox="0 0 1440 170" fill="none" xmlns="http://www.w3.org/2000/svg">
<path fill-rule="evenodd" clip-rule="evenodd" d="M1440 170L1380 158.667C1320 147.333 1200 124.667 1080 110.5C960 96.3333 840 90.6667 720 96.3333C600 102 480 119 360 124.667C240 130.333 120 124.667 59.9999 121.833L-5.72205e-05 119V4.76837e-06H59.9999C120 4.76837e-06 240 4.76837e-06 360 4.76837e-06C480 4.76837e-06 600 4.76837e-06 720 4.76837e-06C840 4.76837e-06 960 4.76837e-06 1080 4.76837e-06C1200 4.76837e-06 1320 4.76837e-06 1380 4.76837e-06H1440V170Z" fill="#E94F01"/>
</svg>
