<svg width="1440" height="185" viewBox="0 0 1440 185" fill="none" xmlns="http://www.w3.org/2000/svg">
<path fill-rule="evenodd" clip-rule="evenodd" d="M0 25.7756L60.2456 42.9594C119.836 60.1431 240.327 94.5106 360.164 128.878C480 163.246 599.836 197.613 720.327 180.429C840.164 163.246 960 94.5106 1079.84 73.0309C1200.33 51.5512 1320.16 77.3269 1379.75 90.2147L1440 103.102V0H1379.75C1320.16 0 1200.33 0 1079.84 0C960 0 840.164 0 720.327 0C599.836 0 480 0 360.164 0C240.327 0 119.836 0 60.2456 0H0V25.7756Z" fill="#E7A625"/>
</svg>
