<svg width="1440" height="127" viewBox="0 0 1440 127" fill="none" xmlns="http://www.w3.org/2000/svg">
<path fill-rule="evenodd" clip-rule="evenodd" d="M-3 54.4286L57.2083 42.3333C117.417 30.2381 237.833 6.04762 358.25 9.07143C478.667 12.0952 599.083 42.3333 719.5 57.4524C839.917 72.5714 960.333 72.5714 1080.75 60.4762C1201.17 48.381 1321.58 24.1905 1381.79 12.0952L1442 0V127H1381.79C1321.58 127 1201.17 127 1080.75 127C960.333 127 839.917 127 719.5 127C599.083 127 478.667 127 358.25 127C237.833 127 117.417 127 57.2083 127H-3V54.4286Z" fill="#E7A625"/>
</svg>
