<svg width="1440" height="118" viewBox="0 0 1440 118" fill="none" xmlns="http://www.w3.org/2000/svg">
<path fill-rule="evenodd" clip-rule="evenodd" d="M1440 0L1380.08 9.98462C1320.17 19.9692 1200.33 39.4846 1079.5 45.8385C959.667 52.6462 839.834 45.8385 720 32.6769C600.166 19.9692 480.333 0 359.501 9.98462C239.667 19.9692 119.833 59 59.9167 78.5154L0 98.4846V118H59.9167C119.833 118 239.667 118 359.501 118C480.333 118 600.166 118 720 118C839.834 118 959.667 118 1079.5 118C1200.33 118 1320.17 118 1380.08 118H1440V0Z" fill="#E94F01"/>
</svg>
