<svg width="33" height="33" viewBox="0 0 33 33" fill="none" xmlns="http://www.w3.org/2000/svg">
<g clip-path="url(#clip0_28_250)">
<path d="M26.0686 6.40669C27.6866 9.88837 27.3195 13.9868 25.5279 17.3176C24.058 20.0504 21.8646 22.3105 20.057 24.8123C19.2307 25.9578 18.3963 27.1486 17.8289 28.4529C17.6407 28.8868 17.4778 29.3313 17.3176 29.7772C17.1561 30.2218 17.0186 30.6757 16.8637 31.1229C16.7182 31.5421 16.5487 32.036 16.0267 32.04H16.0173C15.3952 32.0387 15.2444 31.3325 15.0895 30.8559C14.7104 29.6891 14.3139 28.569 13.7291 27.485C13.0483 26.2248 12.2006 25.0593 11.3395 23.9192L26.0686 6.40669ZM11.4076 10.2862L6.12232 16.57C7.08886 18.6259 8.55335 20.3921 9.9551 22.1503C10.2848 22.5642 10.6146 22.9807 10.939 23.3999L17.5926 15.49L17.5539 15.5034C15.2297 16.3057 12.6264 15.1149 11.6906 12.8507C11.5626 12.5434 11.469 12.2228 11.4116 11.8949C11.3275 11.3115 11.3088 10.8789 11.4062 10.2955L11.4076 10.2862ZM7.33183 4.20394L7.32782 4.20928C4.72858 7.50139 4.28269 12.0591 5.83663 15.9172L12.2246 8.32241L12.1472 8.25566L7.33183 4.20394ZM19.5724 0.582082L14.4487 6.67369C14.4605 6.66865 14.4725 6.6642 14.4848 6.66034C16.6208 5.92475 19.0278 6.86059 20.1185 8.83105C20.3534 9.25691 20.5497 9.74285 20.6218 10.2261C20.7125 10.8215 20.7352 11.2581 20.6378 11.8548L20.6338 11.8762L25.7548 5.78725C24.4166 3.3464 22.2166 1.49198 19.5845 0.586087L19.5724 0.582082ZM12.6371 7.8338L18.9063 0.380497L18.8435 0.364477C17.9159 0.120633 16.9605 -0.00187368 16.0013 2.16588e-05C14.4482 0.0145688 12.9148 0.350109 11.4976 0.985568C10.0803 1.62103 8.80975 2.54268 7.7657 3.69263L7.74434 3.71666L12.6371 7.8338Z" fill="black" stroke="black"/>
</g>
<defs>
<clipPath id="clip0_28_250">
<rect width="32.04" height="32.04" fill="white"/>
</clipPath>
</defs>
</svg>
