<svg width="45" height="45" viewBox="0 0 45 45" fill="none" xmlns="http://www.w3.org/2000/svg">
<path d="M22.5 16.8525C19.3995 16.8525 16.8525 19.3995 16.8525 22.4996C16.8525 25.6001 19.3995 28.1471 22.5 28.1471C25.4948 28.1471 27.9504 25.7648 28.116 22.8092C28.1367 22.7072 28.1473 22.6035 28.1475 22.4996C28.1474 22.3951 28.1368 22.2909 28.116 22.1886C27.9495 19.233 25.4939 16.8525 22.5 16.8525ZM22.5 20.0025C23.8982 20.0025 24.9975 21.1014 24.9975 22.4996C24.9975 23.8977 23.8982 24.9971 22.5 24.9971C21.1019 24.9971 20.0025 23.8977 20.0025 22.4996C20.0025 21.1014 21.1019 20.0025 22.5 20.0025Z" fill="black"/>
</svg>
