<svg width="1440" height="98" viewBox="0 0 1440 98" fill="none" xmlns="http://www.w3.org/2000/svg">
<path fill-rule="evenodd" clip-rule="evenodd" d="M0 78.5958L59.7924 67.2201C119.585 56.103 240.166 33.6101 359.751 29.9905C480.332 26.1124 599.917 41.1077 720.498 57.9127C840.083 74.7178 959.668 93.5911 1080.25 97.2106C1199.83 101.089 1320.42 89.713 1380.21 84.0252L1440 78.5958V0H1380.21C1320.42 0 1199.83 0 1080.25 0C959.668 0 840.083 0 720.498 0C599.917 0 480.332 0 359.751 0C240.166 0 119.585 0 59.7924 0H0V78.5958Z" fill="#E7A625"/>
</svg>
